<?xml version="1.0" encoding="UTF-8"?>
<svg xmlns="http://www.w3.org/2000/svg" width="180" height="40" viewBox="0 0 180 40" fill="none">
  <defs>
    <linearGradient id="gold" x1="0" y1="0" x2="0" y2="40" gradientUnits="userSpaceOnUse">
      <stop offset="0" stop-color="#F9D976"/>
      <stop offset="0.5" stop-color="#F3B73E"/>
      <stop offset="1" stop-color="#D88900"/>
    </linearGradient>
  </defs>
  <!-- S-Key Icon scaled to 40px height -->
  <g transform="translate(0, 0) scale(0.05)">
    <path d="M 374.00 167.00 L 334.00 186.00 L 315.00 205.00 L 300.00 237.00 L 299.00 279.00 L 310.00 307.00 L 333.00 330.00 L 379.00 351.00 L 430.00 365.00 L 451.00 377.00 L 465.00 392.00 L 470.00 415.00 L 463.00 434.00 L 451.00 447.00 L 431.00 457.00 L 431.00 494.00 L 466.00 483.00 L 483.00 470.00 L 499.00 451.00 L 508.00 416.00 L 504.00 382.00 L 495.00 365.00 L 467.00 341.00 L 451.00 332.00 L 379.00 312.00 L 353.00 297.00 L 340.00 280.00 L 336.00 262.00 L 338.00 246.00 L 346.00 228.00 L 358.00 215.00 L 381.00 203.00 L 408.00 201.00 L 431.00 207.00 L 448.00 219.00 L 463.00 240.00 L 469.00 266.00 L 503.00 267.00 L 504.00 247.00 L 495.00 220.00 L 485.00 204.00 L 470.00 188.00 L 451.00 176.00 L 414.00 165.00 Z M 308.00 357.00 L 307.00 376.00 L 315.00 405.00 L 342.00 430.00 L 360.00 438.00 L 381.00 443.00 L 381.00 527.00 L 333.00 528.00 L 331.00 532.00 L 331.00 558.00 L 333.00 560.00 L 359.00 560.00 L 360.00 580.00 L 353.00 582.00 L 320.00 582.00 L 319.00 612.00 L 323.00 614.00 L 380.00 614.00 L 380.00 627.00 L 384.00 630.00 L 417.00 630.00 L 419.00 626.00 L 418.00 415.00 L 410.00 407.00 L 375.00 401.00 L 342.00 389.00 L 326.00 378.00 Z" fill="url(#gold)" fill-rule="evenodd" clip-rule="evenodd"/>
  </g>
  <!-- Wordmark - dark for light backgrounds -->
  <text x="48" y="28" font-family="DM Sans, system-ui, sans-serif" font-size="24" font-weight="600" fill="#1a1710">Sigilry</text>
</svg>
